PathFileType	4	(X/Y/Z)	/Users/itak/Documents/Research/Walk-IL/dataset/trc/00375_00011.trc
DataRate	CameraRate	NumFrames	NumMarkers	Units	OrigDataRate	OrigDataStartFrame	OrigNumFrames
100.000000	100.000000	4	56	mm	100.000000	125	502
Frame#	Time	RPSI			LPSI			L3			STRN			T10			C7			CLAV			RBAK			LBAK			LSHO			LUPA			LAEL			LAOL			LWPS			LFRA			LHPS			LHTS			RSHO			RUPA			RAEL			RAOL			RWTS			RWPS			RFRA			RIFD			RHTS			RHPS			RBHD			LFHD			RFHD			LBHD			LHIP			RHIP			RASI			LASI			LKNE			LTHI			LANK			LTIP			LTOE			LMT1			LMT5			LHEE			RKNE			RTHI			RANK			RTIP			RTOE			RMT1			RMT5			RHEE			LIFD			LWTS			*53			*54			*55			
		X1	Y1	Z1	X2	Y2	Z2	X3	Y3	Z3	X4	Y4	Z4	X5	Y5	Z5	X6	Y6	Z6	X7	Y7	Z7	X8	Y8	Z8	X9	Y9	Z9	X10	Y10	Z10	X11	Y11	Z11	X12	Y12	Z12	X13	Y13	Z13	X14	Y14	Z14	X15	Y15	Z15	X16	Y16	Z16	X17	Y17	Z17	X18	Y18	Z18	X19	Y19	Z19	X20	Y20	Z20	X21	Y21	Z21	X22	Y22	Z22	X23	Y23	Z23	X24	Y24	Z24	X25	Y25	Z25	X26	Y26	Z26	X27	Y27	Z27	X28	Y28	Z28	X29	Y29	Z29	X30	Y30	Z30	X31	Y31	Z31	X32	Y32	Z32	X33	Y33	Z33	X34	Y34	Z34	X35	Y35	Z35	X36	Y36	Z36	X37	Y37	Z37	X38	Y38	Z38	X39	Y39	Z39	X40	Y40	Z40	X41	Y41	Z41	X42	Y42	Z42	X43	Y43	Z43	X44	Y44	Z44	X45	Y45	Z45	X46	Y46	Z46	X47	Y47	Z47	X48	Y48	Z48	X49	Y49	Z49	X50	Y50	Z50	X51	Y51	Z51	X52	Y52	Z52	X53	Y53	Z53	X54	Y54	Z54	X55	Y55	Z55	X56	Y56	Z56	

126	1.25	-1404.45556640625	983.9306030273438	-18.18659019470215	-1399.050659179688	984.2144775390625	-147.5263366699219	-1401.896118164062	1040.7998046875	-81.31775665283203	-1168.607421875	1218.3828125	-85.25637054443359	-1412.57958984375	1162.208251953125	-96.02857971191406	-1360.971801757812	1409.138549804688	-111.4459915161133	-1208.057861328125	1344.483764648438	-93.21131896972656	-1424.862182617188	1273.421997070312	-44.65964508056641	-1365.50390625	1371.711669921875	-212.9745178222656	-1274.872924804688	1386.98974609375	-262.983154296875	-1296.043090820312	1268.090087890625	-332.6449279785156	-1285.045776367188	1064.748291015625	-345.1763305664062	-1354.400268554688	1052.603759765625	-297.6752319335938	-1222.762451171875	810.1011352539062	-346.4617614746094	-1269.600341796875	959.8987426757812	-351.3331298828125	-1230.11376953125	737.4132690429688	-331.8376770019531	-1184.058471679688	743.344970703125	-286.1407165527344	-1318.513061523438	1391.097534179688	55.13536071777344	-1340.141357421875	1327.511352539062	119.0773849487305	-1352.501586914062	1061.904174804688	163.6415252685547	-1393.323120117188	1053.469604492188	77.83098602294922	-1248.233154296875	832.5940551757812	120.4334716796875	-1284.030395507812	819.623046875	187.8397827148438	-1330.62646484375	995.1209716796875	172.9761199951172	-1244.159057617188	659.66455078125	132.1673583984375	-1222.827758789062	730.5494384765625	138.0782470703125	-1272.830810546875	735.1712646484375	185.8334808349609	-1342.249877929688	1603.851928710938	-46.14202880859375	-1151.0947265625	1626.712158203125	-128.3176422119141	-1182.18994140625	1632.180908203125	-32.68289566040039	-1323.283081054688	1587.373168945312	-188.4130249023438	-1311.416870117188	924.0374755859375	-248.2587127685547	-1328.631591796875	923.390380859375	98.98081970214844	-1222.49658203125	950.1127319335938	55.5081787109375	-1191.256713867188	942.6517333984375	-182.3597869873047	-1299.7216796875	466.3224487304688	-247.3421020507812	-1283.1904296875	602.6954345703125	-252.498291015625	-1405.0712890625	51.1094856262207	-260.6054382324219	-1353.083374023438	254.3448333740234	-267.0450439453125	-1201.468872070312	46.13804244995117	-195.0691986083984	-1270.289672851562	33.88879776000977	-156.7230072021484	-1278.525268554688	45.69710540771484	-269.7097473144531	-1440.7626953125	45.28292846679688	-194.705810546875	-1335.2294921875	463.1981506347656	105.3571319580078	-1293.801391601562	735.5899658203125	133.7221374511719	-1409.199096679688	54.43643951416016	113.4159240722656	-1336.877319335938	346.3826904296875	104.5463714599609	-1218.717895507812	47.63436889648438	57.42924118041992	-1275.811279296875	38.57108306884766	17.43343353271484	-1306.493041992188	42.71356201171875	130.33935546875	-1462.255126953125	52.84621429443359	67.80463409423828	-1220.600830078125	679.3370361328125	-240.0188598632812	-1197.334228515625	823.2454223632812	-283.796875	nan	nan	nan	nan	nan	nan	nan	nan	nan	
127	1.26	-1404.0673828125	984.1170654296875	-18.48988342285156	-1398.997314453125	984.5750122070312	-147.8645629882812	-1401.57275390625	1041.065185546875	-81.61280822753906	-1167.736450195312	1218.49853515625	-85.75341796875	-1412.035034179688	1162.483520507812	-96.27732086181641	-1360.185424804688	1409.357788085938	-111.8502502441406	-1207.334594726562	1344.530029296875	-93.83453369140625	-1424.138061523438	1273.685791015625	-45.0041618347168	-1364.956176757812	1371.8974609375	-213.4029846191406	-1274.309814453125	1387.02978515625	-263.49462890625	-1295.590942382812	1268.099853515625	-333.0243225097656	-1284.750732421875	1064.74072265625	-345.465576171875	-1354.092529296875	1052.673950195312	-297.8863220214844	-1222.626831054688	810.1201782226562	-346.7640075683594	-1269.394165039062	959.9005126953125	-351.6045227050781	-1229.8671875	737.4464111328125	-332.1268920898438	-1183.787963867188	743.412353515625	-286.4275512695312	-1317.547485351562	1391.313110351562	54.67503356933594	-1339.193603515625	1327.796997070312	118.6967163085938	-1351.839111328125	1062.194946289062	163.2573089599609	-1392.731201171875	1053.79736328125	77.45896148681641	-1247.800170898438	832.779052734375	120.0391998291016	-1283.634765625	819.90966796875	187.4371185302734	-1330.071655273438	995.34033203125	172.6420288085938	-1243.835083007812	659.9589233398438	131.8223419189453	-1222.532958984375	730.7078247070312	137.7466278076172	-1272.49853515625	735.4270629882812	185.4838104248047	-1341.27734375	1604.034912109375	-46.58867263793945	-1150.210571289062	1626.740844726562	-128.9758911132812	-1181.245727539062	1632.242797851562	-33.29536056518555	-1322.460327148438	1587.511962890625	-188.9044799804688	-1311.824951171875	924.4801025390625	-248.9999237060547	-1328.112670898438	923.0408325195312	98.33644104003906	-1222.020874023438	949.7876586914062	54.80207443237305	-1191.25048828125	942.9205322265625	-183.1698150634766	-1297.660034179688	466.1029052734375	-247.3049926757812	-1282.129028320312	602.7481079101562	-252.6797027587891	-1404.99462890625	51.34375762939453	-260.4669799804688	-1351.80517578125	254.2581787109375	-266.7502746582031	-1201.494018554688	46.24163055419922	-195.0877990722656	-1270.39794921875	33.73346328735352	-156.6052398681641	-1278.46630859375	45.77116775512695	-269.6228942871094	-1440.688354492188	45.43873596191406	-194.5934448242188	-1335.087524414062	463.1408081054688	105.2308883666992	-1293.599243164062	735.7684936523438	133.3798217773438	-1409.247436523438	54.3558235168457	113.5196762084961	-1336.703979492188	346.2273559570312	104.3497085571289	-1218.812866210938	47.760986328125	57.40782165527344	-1275.861206054688	38.57014846801758	17.4450511932373	-1306.517822265625	42.70936965942383	130.3557891845703	-1462.33154296875	52.80241775512695	67.87287902832031	-1219.948608398438	679.4329223632812	-240.5016174316406	-1196.78662109375	823.4754028320312	-284.20703125	nan	nan	nan	nan	nan	nan	nan	nan	nan	
128	1.27	-1403.625732421875	984.2987060546875	-18.86700248718262	-1398.926879882812	984.944580078125	-148.2628326416016	-1401.23046875	1041.335571289062	-81.97023010253906	-1166.809326171875	1218.646728515625	-86.31600952148438	-1411.47265625	1162.773315429688	-96.56192016601562	-1359.361572265625	1409.583129882812	-112.2785720825195	-1206.567749023438	1344.57568359375	-94.51706695556641	-1423.353637695312	1273.946411132812	-45.37710189819336	-1364.401611328125	1372.093872070312	-213.8579711914062	-1273.75732421875	1387.077880859375	-264.0546569824219	-1295.16015625	1268.122436523438	-333.4476928710938	-1284.462646484375	1064.749755859375	-345.7879638671875	-1353.771850585938	1052.756469726562	-298.1113891601562	-1222.458984375	810.1644897460938	-347.1152038574219	-1269.19677734375	959.9154052734375	-351.9216003417969	-1229.535034179688	737.4954833984375	-332.4635009765625	-1183.430541992188	743.5712280273438	-286.84521484375	-1316.494018554688	1391.525390625	54.17422103881836	-1338.141723632812	1328.08447265625	118.2840576171875	-1351.131103515625	1062.499267578125	162.830810546875	-1392.083374023438	1054.138061523438	77.08385467529297	-1247.325439453125	833.00439453125	119.611083984375	-1283.185668945312	820.209228515625	186.9709167480469	-1329.442993164062	995.566650390625	172.2884979248047	-1243.51318359375	660.2171630859375	131.3978729248047	-1222.226318359375	730.8924560546875	137.3645935058594	-1272.154663085938	735.636962890625	184.9962615966797	-1340.270263671875	1604.212646484375	-47.08554840087891	-1149.286987304688	1626.760986328125	-129.692138671875	-1180.239624023438	1632.27392578125	-33.94900131225586	-1321.603393554688	1587.6396484375	-189.429443359375	-1312.219604492188	924.9313354492188	-249.8189239501953	-1327.58154296875	922.6759033203125	97.59176635742188	-1221.5322265625	949.4467163085938	53.99520492553711	-1191.277221679688	943.2010498046875	-184.0890808105469	-1295.327026367188	465.8330993652344	-247.2543640136719	-1280.942626953125	602.7901611328125	-252.9282989501953	-1404.90625	51.62356567382812	-260.3032836914062	-1350.373168945312	254.1656646728516	-266.4335327148438	-1201.477294921875	46.31941223144531	-195.1006011962891	-1270.5009765625	33.57632446289062	-156.4816589355469	-1278.406127929688	45.8533935546875	-269.5302429199219	-1440.598510742188	45.64175796508789	-194.4392395019531	-1334.90087890625	463.0948791503906	105.0062408447266	-1293.365844726562	735.9823608398438	132.9429473876953	-1409.296752929688	54.30319595336914	113.5999298095703	-1336.5126953125	346.0794067382812	104.0885696411133	-1218.899536132812	47.88914489746094	57.38566589355469	-1275.91015625	38.57574462890625	17.45982551574707	-1306.536987304688	42.71452331542969	130.3692779541016	-1462.386108398438	52.77190780639648	67.914794921875	-1219.15673828125	679.5446166992188	-241.0410003662109	-1196.223388671875	823.7496337890625	-284.6703186035156	nan	nan	nan	nan	nan	nan	nan	nan	nan	
129	1.28	-1403.132690429688	984.4682006835938	-19.33230972290039	-1398.84130859375	985.310302734375	-148.7343139648438	-1400.8583984375	1041.603759765625	-82.39559173583984	-1165.85546875	1218.799438476562	-86.96712493896484	-1410.895263671875	1163.069213867188	-96.88930511474609	-1358.501708984375	1409.807373046875	-112.7347717285156	-1205.758666992188	1344.612182617188	-95.25791931152344	-1422.499145507812	1274.20703125	-45.77752685546875	-1363.833251953125	1372.296142578125	-214.3381805419922	-1273.21435546875	1387.129760742188	-264.6648254394531	-1294.760620117188	1268.153686523438	-333.9237365722656	-1284.183227539062	1064.773071289062	-346.14892578125	-1353.439331054688	1052.845825195312	-298.3539123535156	-1222.25146484375	810.229248046875	-347.5240783691406	-1269.009399414062	959.94091796875	-352.2914733886719	-1229.121704101562	737.5592041015625	-332.8614807128906	-1182.974975585938	743.8126831054688	-287.4173583984375	-1315.34716796875	1391.726684570312	53.63233184814453	-1336.982177734375	1328.366821289062	117.8338470458984	-1350.375854492188	1062.812377929688	162.3708648681641	-1391.379516601562	1054.485107421875	76.71169281005859	-1246.822875976562	833.2620239257812	119.1382293701172	-1282.677124023438	820.5056762695312	186.4345397949219	-1328.737182617188	995.8007202148438	171.9080810546875	-1243.196044921875	660.4187622070312	130.8740692138672	-1221.922973632812	731.1013793945312	136.9263916015625	-1271.787719726562	735.7943725585938	184.3710021972656	-1339.227661132812	1604.367797851562	-47.63203048706055	-1148.322509765625	1626.757690429688	-130.4626770019531	-1179.168579101562	1632.263427734375	-34.64591598510742	-1320.713256835938	1587.757690429688	-189.9863433837891	-1312.5908203125	925.37744140625	-250.7199249267578	-1327.018676757812	922.2905883789062	96.72457885742188	-1221.01220703125	949.0855712890625	53.0657844543457	-1191.34619140625	943.46923828125	-185.1283874511719	-1292.735473632812	465.5126953125	-247.2022247314453	-1279.620361328125	602.8120727539062	-253.2517852783203	-1404.802124023438	51.94799041748047	-260.1108093261719	-1348.780395507812	254.0556793212891	-266.0912780761719	-1201.408569335938	46.36664581298828	-195.1071166992188	-1270.586669921875	33.42630386352539	-156.3552703857422	-1278.350708007812	45.94832229614258	-269.4317932128906	-1440.490966796875	45.884521484375	-194.2284545898438	-1334.65283203125	463.0467529296875	104.679069519043	-1293.087524414062	736.2230834960938	132.4051208496094	-1409.34912109375	54.27818298339844	113.6574096679688	-1336.28369140625	345.9438781738281	103.764274597168	-1218.98046875	48.02062225341797	57.36208343505859	-1275.9599609375	38.58900833129883	17.47746086120605	-1306.553466796875	42.72835540771484	130.3798828125	-1462.422241210938	52.75104904174805	67.93706512451172	-1218.2841796875	679.6204833984375	-241.61962890625	-1195.677124023438	824.0425415039062	-285.181640625	nan	nan	nan	nan	nan	nan	nan	nan	nan	
